<?xml version="1.0" standalone="no"?>
<svg xmlns="http://www.w3.org/2000/svg" width="24" height="24"><rect width="24" height="24" opacity="0"></rect><g><path d="M12 5.11Q11.52 5.11 11.16 5.46Q10.8 5.81 10.8 6.31L10.8 11.98Q10.8 12.26 10.87 12.44Q10.94 12.62 11.16 12.84L15.77 17.45Q16.13 17.78 16.62 17.78Q17.11 17.78 17.45 17.45Q17.78 17.11 17.78 16.62Q17.78 16.13 17.45 15.77L13.18 11.52L13.18 6.31Q13.18 5.81 12.83 5.46Q12.48 5.11 12 5.11Z" fill="rgba(0,0,0,0.9019607843137255)"></path><path d="M11.45 0.5Q8.4 0.65 5.89 2.23Q3.38 3.82 1.94 6.4Q0.5 8.98 0.5 12Q0.5 13.03 0.64 13.92Q0.77 14.81 1.1 15.72L1.22 16.03Q1.34 16.37 1.64 16.51Q1.94 16.66 2.26 16.56Q2.57 16.46 2.76 16.18L4.85 12.82Q5.04 12.53 5.02 12.22Q4.99 11.9 4.78 11.7Q4.56 11.5 4.25 11.5L3.05 11.5Q3.17 9.24 4.31 7.34Q5.45 5.45 7.34 4.3Q9.24 3.14 11.54 3.02Q14.02 2.93 16.13 4.02Q18.24 5.11 19.55 7.12Q20.86 9.12 20.98 11.57Q21.07 14.04 19.98 16.16Q18.89 18.29 16.88 19.58Q14.88 20.88 12.43 21Q10.66 21.1 9.05 20.52Q7.44 19.94 6.1 18.77Q5.69 18.46 5.17 18.49Q4.66 18.53 4.3 18.91Q4.06 19.2 4.02 19.63Q3.98 20.06 4.2 20.4Q4.25 20.52 4.44 20.71Q6.17 22.2 8.45 22.91Q10.73 23.62 12.55 23.5Q15.67 23.3 18.24 21.62Q20.81 19.94 22.22 17.26Q23.64 14.57 23.47 11.45Q23.33 8.33 21.66 5.75Q19.99 3.17 17.27 1.76Q14.54 0.36 11.45 0.5Z" fill="rgba(0,0,0,0.9019607843137255)"></path></g></svg>