<?xml version="1.0" standalone="no"?>
<svg xmlns="http://www.w3.org/2000/svg" width="24" height="24"><rect width="24" height="24" opacity="0"></rect><g><path d="M8.26 9.89Q8.69 9.89 8.99 9.58Q9.29 9.28 9.29 8.84Q9.29 8.4 8.99 8.11Q8.69 7.82 8.26 7.82L7.18 7.82Q6.74 7.82 6.44 8.12Q6.14 8.42 6.14 8.86Q6.14 9.29 6.44 9.59Q6.74 9.89 7.18 9.89L8.26 9.89ZM12.6 9.89Q13.03 9.89 13.33 9.58Q13.63 9.28 13.63 8.84Q13.63 8.4 13.33 8.11Q13.03 7.82 12.6 7.82L11.52 7.82Q11.09 7.82 10.79 8.12Q10.49 8.42 10.49 8.86Q10.49 9.29 10.79 9.59Q11.09 9.89 11.52 9.89L12.6 9.89ZM16.94 9.89Q17.38 9.89 17.68 9.58Q17.98 9.28 17.98 8.84Q17.98 8.4 17.68 8.11Q17.38 7.82 16.94 7.82L15.86 7.82Q15.43 7.82 15.13 8.12Q14.83 8.42 14.83 8.86Q14.83 9.29 15.13 9.59Q15.43 9.89 15.86 9.89L16.94 9.89ZM8.26 13.18Q8.69 13.18 8.99 12.88Q9.29 12.58 9.29 12.14Q9.29 11.71 8.99 11.41Q8.69 11.11 8.26 11.11L7.18 11.11Q6.74 11.11 6.44 11.41Q6.14 11.71 6.14 12.14Q6.14 12.58 6.44 12.88Q6.74 13.18 7.18 13.18L8.26 13.18ZM12.6 13.18Q13.03 13.18 13.33 12.88Q13.63 12.58 13.63 12.14Q13.63 11.71 13.33 11.41Q13.03 11.11 12.6 11.11L11.52 11.11Q11.09 11.11 10.79 11.41Q10.49 11.71 10.49 12.14Q10.49 12.58 10.79 12.88Q11.09 13.18 11.52 13.18L12.6 13.18ZM16.94 13.18Q17.38 13.18 17.68 12.88Q17.98 12.58 17.98 12.14Q17.98 11.71 17.68 11.41Q17.38 11.11 16.94 11.11L15.86 11.11Q15.43 11.11 15.13 11.41Q14.83 11.71 14.83 12.14Q14.83 12.58 15.13 12.88Q15.43 13.18 15.86 13.18L16.94 13.18ZM16.94 16.44Q17.38 16.44 17.68 16.14Q17.98 15.84 17.98 15.41Q17.98 14.98 17.68 14.68Q17.38 14.38 16.94 14.38L7.03 14.38Q6.6 14.38 6.3 14.68Q6 14.98 6 15.41Q6 15.84 6.3 16.14Q6.6 16.44 7.03 16.44L16.94 16.44ZM19.01 4.01Q19.46 4.01 19.73 4.27Q19.99 4.54 19.99 4.99L19.99 19.01Q19.99 19.46 19.73 19.73Q19.46 19.99 19.01 19.99L4.99 19.99Q4.54 19.99 4.27 19.73Q4.01 19.46 4.01 19.01L4.01 4.99Q4.01 4.54 4.27 4.27Q4.54 4.01 4.99 4.01L19.01 4.01ZM4.99 1.49Q4.03 1.49 3.23 1.96Q2.42 2.42 1.96 3.23Q1.49 4.03 1.49 4.99L1.49 19.01Q1.49 19.97 1.96 20.77Q2.42 21.58 3.23 22.04Q4.03 22.51 4.99 22.51L19.01 22.51Q19.97 22.51 20.77 22.04Q21.58 21.58 22.04 20.77Q22.51 19.97 22.51 19.01L22.51 4.99Q22.51 4.03 22.04 3.23Q21.58 2.42 20.77 1.96Q19.97 1.49 19.01 1.49L4.99 1.49Z" fill="rgba(0,0,0,0.9019607843137255)"></path></g></svg>