<?xml version="1.0" standalone="no"?>
<svg xmlns="http://www.w3.org/2000/svg" width="24" height="24"><rect width="24" height="24" opacity="0"></rect><g><path d="M20.02 11.28Q20.02 10.75 19.64 10.39Q19.27 10.03 18.74 10.03Q18.22 10.03 17.86 10.39Q17.5 10.75 17.5 11.28Q17.5 12.82 16.76 14.06Q16.03 15.31 14.78 16.04Q13.54 16.78 12.02 16.78Q10.49 16.78 9.23 16.04Q7.97 15.31 7.24 14.06Q6.5 12.82 6.5 11.28Q6.5 10.75 6.14 10.39Q5.78 10.03 5.26 10.03Q4.73 10.03 4.37 10.39Q4.01 10.75 4.01 11.28Q4.01 13.25 4.88 14.94Q5.76 16.63 7.31 17.76Q8.86 18.89 10.75 19.18L10.75 21.46Q10.75 21.98 11.11 22.34Q11.47 22.7 12 22.7Q12.53 22.7 12.89 22.34Q13.25 21.98 13.25 21.46L13.25 19.18Q15.14 18.89 16.69 17.76Q18.24 16.63 19.13 14.94Q20.02 13.25 20.02 11.28ZM7.99 11.47Q7.99 12.58 8.53 13.49Q9.07 14.4 9.98 14.94Q10.9 15.48 12 15.48Q13.1 15.48 14.02 14.94Q14.93 14.4 15.47 13.49Q16.01 12.58 16.01 11.47L16.01 5.47Q16.01 4.39 15.47 3.47Q14.93 2.54 14.02 2Q13.1 1.46 12 1.46Q10.9 1.46 9.98 2Q9.07 2.54 8.53 3.47Q7.99 4.39 7.99 5.47L7.99 11.47Z" fill="rgba(0,0,0,0.9019607843137255)"></path></g></svg>