<?xml version="1.0" standalone="no"?>
<svg xmlns="http://www.w3.org/2000/svg" width="24" height="24"><rect width="24" height="24" opacity="0"></rect><g><path d="M10.34 19.06Q10.87 18.79 11.17 18.31Q11.47 17.83 11.47 17.26L11.47 6.84Q11.47 6.26 11.17 5.77Q10.87 5.28 10.34 5.04Q9.82 4.8 9.26 4.87Q8.71 4.94 8.26 5.3L4.94 8.02L2.5 8.02Q1.51 8.02 0.82 8.71Q0.12 9.41 0.12 10.39L0.12 13.68Q0.12 14.66 0.82 15.37Q1.51 16.08 2.5 16.08L4.94 16.08L8.26 18.82Q8.74 19.15 9.3 19.21Q9.86 19.27 10.34 19.06ZM5.78 10.37L9.12 7.75L9.05 16.34L5.81 13.73L2.76 13.73Q2.62 13.73 2.54 13.63Q2.47 13.54 2.47 13.39L2.47 10.66Q2.47 10.51 2.56 10.44Q2.64 10.37 2.78 10.37Z" fill="rgba(0,0,0,0.9019607843137255)"></path><path d="M14.42 8.81Q14.06 8.47 13.58 8.45Q13.1 8.42 12.72 8.78Q12.38 9.12 12.38 9.61Q12.38 10.1 12.72 10.46Q13.03 10.8 13.19 11.17Q13.34 11.54 13.34 12Q13.34 12.48 13.19 12.86Q13.03 13.25 12.7 13.56Q12.36 13.9 12.36 14.39Q12.36 14.88 12.7 15.24Q13.03 15.6 13.54 15.6Q14.04 15.6 14.38 15.24Q15.02 14.59 15.37 13.76Q15.72 12.94 15.72 12.02Q15.72 11.11 15.37 10.28Q15.02 9.46 14.42 8.81Z" fill="rgba(0,0,0,0.9019607843137255)"></path><path d="M17.26 6.1Q16.92 5.76 16.42 5.76Q15.91 5.76 15.58 6.1Q15.24 6.43 15.24 6.94Q15.24 7.44 15.58 7.78Q16.42 8.62 16.87 9.7Q17.33 10.78 17.33 12Q17.33 13.22 16.88 14.28Q16.44 15.34 15.6 16.2Q15.24 16.54 15.24 17.03Q15.24 17.52 15.6 17.88Q15.96 18.24 16.45 18.24Q16.94 18.24 17.28 17.88Q18.46 16.7 19.08 15.18Q19.7 13.66 19.7 12Q19.7 10.32 19.07 8.78Q18.43 7.25 17.26 6.1Z" fill="rgba(0,0,0,0.9019607843137255)"></path><path d="M20.4 3.58Q20.06 3.24 19.56 3.24Q19.06 3.24 18.72 3.58Q18.38 3.91 18.38 4.42Q18.38 4.92 18.72 5.26Q20.09 6.6 20.81 8.33Q21.53 10.06 21.53 12Q21.53 13.94 20.81 15.66Q20.09 17.38 18.74 18.74Q18.38 19.08 18.4 19.57Q18.41 20.06 18.74 20.42Q19.08 20.76 19.58 20.76Q20.09 20.76 20.42 20.42Q22.08 18.74 22.98 16.56Q23.88 14.38 23.88 12Q23.88 9.62 22.97 7.44Q22.06 5.26 20.4 3.58Z" fill="rgba(0,0,0,0.9019607843137255)"></path></g></svg>