<?xml version="1.0" standalone="no"?>
<svg xmlns="http://www.w3.org/2000/svg" width="24" height="24"><rect width="24" height="24" opacity="0"></rect><g><path d="M16.54 22.97Q17.09 22.97 17.69 22.64Q18.29 22.32 18.7 21.79Q19.1 21.26 19.15 20.74L20.28 8.66Q20.33 8.26 20.02 7.97Q19.7 7.68 19.27 7.68L4.73 7.68Q4.3 7.68 3.98 7.97Q3.67 8.26 3.72 8.66L4.85 20.74Q4.9 21.31 5.29 21.83Q5.69 22.34 6.28 22.66Q6.86 22.97 7.46 22.97L16.54 22.97ZM14.16 19.3Q13.68 19.3 13.36 18.98Q13.03 18.67 13.06 18.24L13.32 11.57Q13.34 11.14 13.66 10.86Q13.97 10.58 14.42 10.58Q14.88 10.61 15.2 10.92Q15.53 11.23 15.5 11.64L15.26 18.31Q15.24 18.74 14.93 19.02Q14.62 19.3 14.16 19.3ZM9.86 19.3Q9.41 19.3 9.1 19.02Q8.78 18.74 8.76 18.31L8.5 11.64Q8.47 11.23 8.77 10.92Q9.07 10.61 9.53 10.58Q10.01 10.56 10.33 10.85Q10.66 11.14 10.68 11.57L10.97 18.24Q10.99 18.67 10.67 18.98Q10.34 19.3 9.86 19.3ZM16.15 3.86Q15.74 2.54 14.63 1.7Q13.51 0.86 12.1 0.86Q10.68 0.86 9.56 1.7Q8.45 2.54 8.04 3.86L3.43 3.86Q2.9 3.86 2.54 4.24Q2.18 4.61 2.18 5.14Q2.18 5.64 2.54 6.02Q2.9 6.41 3.43 6.41L8.93 6.41L15.29 6.41L20.57 6.38Q21.1 6.38 21.46 6.01Q21.82 5.64 21.82 5.14Q21.82 4.61 21.46 4.24Q21.1 3.86 20.57 3.86L16.15 3.86Z" fill="rgba(0,0,0,0.9019607843137255)"></path></g></svg>